Coordinates
version=1
nRows=41
nColumns=38
inDegrees=no

Units are S.I. units (second, meters, Newtons, ...)
If the header above contains a line with 'inDegrees', this indicates whether rotational values are in degrees (yes) or radians (no).

endheader
time	pelvis_tilt	pelvis_list	pelvis_rotation	pelvis_tx	pelvis_ty	pelvis_tz	hip_flexion_r	hip_adduction_r	hip_rotation_r	knee_angle_r	ankle_angle_r	subtalar_angle_r	mtp_angle_r	hip_flexion_l	hip_adduction_l	hip_rotation_l	knee_angle_l	ankle_angle_l	subtalar_angle_l	mtp_angle_l	lumbar_extension	lumbar_bending	lumbar_rotation	arm_flex_r	arm_add_r	arm_rot_r	elbow_flex_r	pro_sup_r	wrist_flex_r	wrist_dev_r	arm_flex_l	arm_add_l	arm_rot_l	elbow_flex_l	pro_sup_l	wrist_flex_l	wrist_dev_l
1.44	3.01012	1.19449	1.81709	0.568569	-0.15619	1.01961	0.684169	-0.150819	-0.146398	0	-0.237649	0	0	0.243159	-0.0138724	-0.418091	0.496157	-0.139811	0	0	0.330179	-0.0887355	-0.16824	-0.224419	-0.23306	0.411315	0.272344	1.24063	0	0	-0.341956	-0.123013	-0.494208	0.576823	1.02541	0	0
1.45	3.0077	1.19049	1.82561	0.567783	-0.167955	1.0175	0.688891	-0.152623	-0.147243	0	-0.230376	0	0	0.234933	-0.00528504	-0.379129	0.485482	-0.137027	0	0	0.332334	-0.0908004	-0.16913	-0.2251	-0.23237	0.408737	0.270521	1.24043	0	0	-0.340217	-0.125585	-0.489843	0.578766	1.01994	0	0
1.46	3.00848	1.18971	1.82776	0.56682	-0.18011	1.01562	0.69106	-0.150849	-0.143243	0	-0.229094	0	0	0.228061	-0.00886226	-0.36985	0.492112	-0.138196	0	0	0.331395	-0.0893521	-0.168097	-0.225334	-0.233146	0.406633	0.269881	1.239	0	0	-0.338288	-0.126255	-0.488812	0.580519	1.01882	0	0
1.47	3.01237	1.19024	1.82597	0.565806	-0.192443	1.01403	0.692263	-0.147105	-0.135731	0	-0.230136	0	0	0.221281	-0.0142072	-0.359365	0.501089	-0.140357	0	0	0.329168	-0.085872	-0.166399	-0.225337	-0.23447	0.402973	0.26953	1.23609	0	0	-0.336262	-0.126303	-0.487601	0.582016	1.0178	0	0
1.48	3.01919	1.19188	1.82037	0.564777	-0.205038	1.01266	0.69188	-0.14114	-0.125324	0	-0.233696	0	0	0.213922	-0.021691	-0.350639	0.511326	-0.144433	0	0	0.326217	-0.0804549	-0.163953	-0.225441	-0.236615	0.398137	0.269878	1.23221	0	0	-0.334412	-0.1256	-0.486238	0.583017	1.0166	0	0
1.49	3.02986	1.19659	1.81015	0.563655	-0.217967	1.01159	0.686784	-0.132029	-0.112205	0	-0.239905	0	0	0.20502	-0.0326569	-0.343164	0.525857	-0.15319	0	0	0.319986	-0.0721867	-0.160585	-0.226255	-0.239831	0.390127	0.272813	1.22609	0	0	-0.331869	-0.124341	-0.484179	0.583584	1.01443	0	0
1.5	3.04153	1.20049	1.79972	0.562559	-0.231437	1.01062	0.685067	-0.122713	-0.10931	0.0325666	-0.239143	0	0	0.196751	-0.043221	-0.333498	0.538836	-0.161734	0	0	0.316279	-0.0644679	-0.158798	-0.227839	-0.243279	0.384041	0.275342	1.22182	0	0	-0.331652	-0.12295	-0.482971	0.583756	1.01431	0	0
1.51	3.05728	1.20236	1.78771	0.561573	-0.24524	1.0096	0.682701	-0.112947	-0.107125	0.0590762	-0.240143	0	0	0.192718	-0.0537843	-0.316044	0.553261	-0.171831	0	0	0.316491	-0.0568662	-0.159008	-0.230998	-0.246783	0.37866	0.277787	1.21818	0	0	-0.33301	-0.121783	-0.482123	0.583074	1.01686	0	0
1.52	3.0777	1.19903	1.77352	0.560703	-0.259099	1.00824	0.682966	-0.103813	-0.101184	0.0718576	-0.256106	0	0	0.197403	-0.0639449	-0.289215	0.570305	-0.186228	0	0	0.324268	-0.0496136	-0.160467	-0.2368	-0.250423	0.372289	0.280911	1.21419	0	0	-0.335474	-0.120219	-0.483135	0.581477	1.02062	0	0
1.53	3.10104	1.18648	1.75772	0.559844	-0.272743	1.00626	0.690675	-0.0968211	-0.0868973	0.072132	-0.292149	0	0	0.215472	-0.0718312	-0.251398	0.590473	-0.204197	0	0	0.343813	-0.0434846	-0.162346	-0.245559	-0.254255	0.365051	0.284872	1.21061	0	0	-0.339972	-0.11808	-0.486595	0.579515	1.02517	0	0
1.54	3.12689	1.16524	1.74011	0.558982	-0.286093	1.00375	0.706242	-0.0911728	-0.0698986	0.0679512	-0.334961	0	0	0.247081	-0.077987	-0.204188	0.616151	-0.223461	0	0	0.374251	-0.0377322	-0.164212	-0.257345	-0.258632	0.356664	0.290478	1.20714	0	0	-0.346691	-0.115241	-0.491699	0.578074	1.03265	0	0
1.55	-3.12904	1.14801	1.72049	0.558052	-0.299275	1.00186	0.717641	-0.0837106	-0.0612261	0.0674865	-0.363048	0	0	0.277995	-0.0869324	-0.15799	0.646305	-0.246844	0	0	0.398308	-0.0290953	-0.166338	-0.266545	-0.263355	0.348111	0.29605	1.20267	0	0	-0.351242	-0.112233	-0.494691	0.576259	1.03918	0	0
1.56	-3.10032	1.13255	1.69776	0.557002	-0.31228	1.00041	0.728738	-0.0744594	-0.0580114	0.074437	-0.376402	0	0	0.311573	-0.0989968	-0.116268	0.681788	-0.28196	0	0	0.418945	-0.0177585	-0.167479	-0.274326	-0.268728	0.339427	0.302174	1.19766	0	0	-0.35437	-0.108604	-0.496749	0.574426	1.04451	0	0
1.57	-3.07175	1.12113	1.67175	0.555795	-0.325032	0.999466	0.737902	-0.062697	-0.0528047	0.0906967	-0.371622	0	0	0.345678	-0.115844	-0.087592	0.72394	-0.331302	0	0	0.432105	-0.00323636	-0.165872	-0.279717	-0.275092	0.330912	0.309609	1.19277	0	0	-0.355614	-0.103988	-0.498015	0.574729	1.04851	0	0
1.58	-3.04138	1.11627	1.63888	0.55433	-0.337607	0.998967	0.742375	-0.0461846	-0.0421701	0.115123	-0.352399	0	0	0.379468	-0.144819	-0.0866673	0.77824	-0.39945	0	0	0.434165	0.0158979	-0.161101	-0.281566	-0.283068	0.323803	0.319462	1.18861	0	0	-0.355295	-0.0980281	-0.499021	0.57894	1.0515	0	0
1.59	-3.01748	1.11184	1.61041	0.552959	-0.349803	0.998916	0.74791	-0.0313871	-0.0276212	0.144938	-0.328938	0	0	0.406971	-0.162109	-0.0728881	0.818349	-0.467466	0	0	0.434527	0.0332341	-0.154155	-0.280633	-0.29087	0.319982	0.327143	1.18579	0	0	-0.352993	-0.0919705	-0.500126	0.581168	1.05436	0	0
1.6	-2.99372	1.10987	1.5811	0.551638	-0.361722	0.999113	0.750491	-0.015642	-0.0145746	0.174405	-0.305869	0	0	0.434238	-0.18013	-0.0667476	0.860694	-0.538322	0	0	0.430496	0.0507829	-0.146767	-0.277266	-0.299145	0.31932	0.334791	1.18243	0	0	-0.349937	-0.0855436	-0.501869	0.584947	1.05853	0	0
1.61	-2.96667	1.1114	1.54938	0.550352	-0.373481	0.999549	0.747033	0.00142657	-0.00831818	0.199224	-0.284963	0	0	0.463866	-0.203981	-0.0727406	0.909454	-0.618552	0	0	0.421004	0.0688302	-0.141089	-0.271266	-0.307843	0.322161	0.342775	1.17803	0	0	-0.346939	-0.0792508	-0.503635	0.591335	1.06456	0	0
1.62	-2.93662	1.11648	1.51702	0.549285	-0.385162	1.00027	0.736375	0.0179014	-0.0119476	0.217272	-0.266383	0	0	0.487274	-0.225002	-0.0763454	0.952677	-0.691602	0	0	0.406412	0.0862042	-0.138689	-0.262695	-0.317457	0.329333	0.351669	1.17398	0	0	-0.344085	-0.0731893	-0.505587	0.599582	1.07192	0	0
1.63	-2.89187	1.12639	1.47142	0.548176	-0.396817	1.00069	0.716488	0.0392203	-0.0237873	0.227838	-0.251027	0	0	0.52051	-0.265254	-0.0991681	1.02095	-0.698132	0	0	0.38277	0.107751	-0.139833	-0.252671	-0.32985	0.337465	0.367712	1.17268	0	0	-0.344973	-0.0666459	-0.506382	0.618755	1.07876	0	0
1.64	-2.86034	1.13423	1.4443	0.547525	-0.40836	1.00175	0.695741	0.0512278	-0.0387088	0.231556	-0.236807	0	0	0.539822	-0.278195	-0.0946568	1.05467	-0.698132	0	0	0.36492	0.120405	-0.143073	-0.241399	-0.339066	0.349935	0.37648	1.17405	0	0	-0.342576	-0.0628147	-0.506516	0.628792	1.08575	0	0
1.65	-2.83439	1.14101	1.42583	0.547013	-0.41976	1.00291	0.674142	0.0596383	-0.0523136	0.229784	-0.225556	0	0	0.560428	-0.284876	-0.0846434	1.08661	-0.698132	0	0	0.349749	0.128486	-0.147661	-0.230257	-0.346385	0.361149	0.383778	1.17644	0	0	-0.340622	-0.0608058	-0.504861	0.639014	1.09099	0	0
1.66	-2.81578	1.14717	1.41644	0.546527	-0.431011	1.00427	0.652874	0.0648193	-0.0634755	0.225166	-0.214799	0	0	0.582877	-0.285811	-0.0691562	1.1213	-0.698132	0	0	0.336154	0.132193	-0.153726	-0.218717	-0.352307	0.36939	0.391264	1.17815	0	0	-0.339462	-0.0604861	-0.502108	0.649083	1.09445	0	0
1.67	-2.81103	1.12959	1.4262	0.546851	-0.440901	1.00352	0.660219	0.0633226	-0.070548	0.224785	-0.202858	0	0	0.654945	-0.246955	0.0130342	1.18278	-0.698132	0	0	0.352532	0.13102	-0.166858	-0.214517	-0.36088	0.374507	0.405275	1.18163	0	0	-0.347001	-0.0596741	-0.498403	0.663341	1.09917	0	0
1.68	-2.81111	1.14644	1.42907	0.545414	-0.453627	1.00711	0.626713	0.0654547	-0.0769899	0.216212	-0.195843	0	0	0.627699	-0.267187	-0.0308363	1.17344	-0.698132	0	0	0.334123	0.126073	-0.161816	-0.202748	-0.359191	0.378189	0.401791	1.18593	0	0	-0.340186	-0.0655018	-0.492391	0.656521	1.10037	0	0
1.69	-2.80323	1.14647	1.42459	0.544704	-0.465033	1.00815	0.613314	0.0707921	-0.0801599	0.212911	-0.190248	0	0	0.66674	-0.268566	-0.0223694	1.22151	-0.698132	0	0	0.331566	0.126412	-0.161633	-0.197679	-0.365248	0.377783	0.415091	1.19065	0	0	-0.344675	-0.066319	-0.489464	0.66749	1.1021	0	0
1.7	-2.81497	1.14429	1.43742	0.543824	-0.476698	1.01008	0.603311	0.0691691	-0.0813533	0.211105	-0.186147	0	0	0.680886	-0.258427	-0.0192501	1.23113	-0.698132	0	0	0.336529	0.11945	-0.157642	-0.193471	-0.36786	0.376469	0.422016	1.19657	0	0	-0.346159	-0.0691814	-0.486804	0.665644	1.10325	0	0
1.71	-2.82348	1.14393	1.4445	0.542893	-0.488294	1.01187	0.591239	0.0696449	-0.0817892	0.210032	-0.181905	0	0	0.703246	-0.252937	-0.0193881	1.25105	-0.698132	0	0	0.338649	0.113902	-0.151955	-0.189909	-0.371331	0.371515	0.43294	1.20272	0	0	-0.349466	-0.0713227	-0.485072	0.667301	1.10335	0	0
1.72	-2.83477	1.14411	1.45242	0.541903	-0.499961	1.01374	0.578526	0.0697376	-0.0812089	0.208947	-0.17739	0	0	0.722897	-0.248964	-0.0251971	1.26573	-0.690451	0	0	0.340495	0.107478	-0.145161	-0.188347	-0.374892	0.360742	0.448372	1.2095	0	0	-0.354251	-0.0731992	-0.484687	0.669625	1.10241	0	0
1.73	-2.84927	1.14484	1.46253	0.541061	-0.511711	1.01573	0.565234	0.0686371	-0.0808512	0.207866	-0.17136	0	0	0.740741	-0.244206	-0.0384831	1.27337	-0.606914	0	0	0.342833	0.100707	-0.135303	-0.19376	-0.376957	0.329244	0.470824	1.23258	0	0	-0.357787	-0.075646	-0.482479	0.66895	1.10184	0	0
1.74	-2.85919	1.14819	1.46723	0.539981	-0.523534	1.01776	0.548498	0.0701695	-0.0809189	0.205153	-0.169441	0	0	0.755739	-0.247247	-0.0499276	1.28479	-0.621836	0	0	0.34103	0.0945897	-0.127854	-0.193066	-0.379559	0.315081	0.489431	1.24366	0	0	-0.363987	-0.0768992	-0.484544	0.672613	1.10156	0	0
1.75	-2.87633	1.15162	1.47789	0.53913	-0.53505	1.01984	0.532419	0.0686773	-0.0785167	0.202479	-0.16714	0	0	0.769675	-0.244806	-0.0684494	1.28408	-0.573849	0	0	0.339176	0.086686	-0.117486	-0.19574	-0.381223	0.290762	0.512142	1.25915	0	0	-0.367372	-0.0776646	-0.487262	0.672895	1.10204	0	0
1.76	-2.8841	1.1554	1.4789	0.538218	-0.546453	1.02136	0.515284	0.0713953	-0.0768423	0.198528	-0.164891	0	0	0.792667	-0.247859	-0.0751833	1.29866	-0.601052	0	0	0.335089	0.0823188	-0.109477	-0.197626	-0.385845	0.274048	0.539664	1.27026	0	0	-0.374251	-0.0769971	-0.490925	0.679928	1.1031	0	0
1.77	-2.90211	1.1601	1.49092	0.53732	-0.558156	1.02354	0.496773	0.0691525	-0.0781373	0.193637	-0.163968	0	0	0.7942	-0.253215	-0.10254	1.28424	-0.58699	0	0	0.332568	0.0736495	-0.0994632	-0.201581	-0.38652	0.251174	0.563892	1.28374	0	0	-0.376461	-0.0780561	-0.494385	0.677014	1.10638	0	0
1.78	-2.91046	1.16461	1.4937	0.536804	-0.569528	1.02492	0.478332	0.0698957	-0.0819599	0.18884	-0.163273	0	0	0.810829	-0.25335	-0.113632	1.28768	-0.573333	0	0	0.328328	0.0694857	-0.0916666	-0.206737	-0.390274	0.23003	0.594739	1.29262	0	0	-0.381345	-0.0771049	-0.497121	0.681135	1.112	0	0
1.79	-2.92462	1.16805	1.50273	0.536267	-0.580913	1.0265	0.460874	0.067941	-0.0868359	0.183323	-0.163345	0	0	0.815742	-0.25358	-0.133461	1.27196	-0.548712	0	0	0.326923	0.0631636	-0.0814117	-0.214292	-0.391298	0.204866	0.623532	1.30383	0	0	-0.382724	-0.077058	-0.499172	0.680071	1.12062	0	0
1.8	-2.93619	1.1693	1.50966	0.535803	-0.592025	1.0277	0.445901	0.0667943	-0.0909318	0.178017	-0.163495	0	0	0.829578	-0.257385	-0.15147	1.26066	-0.534208	0	0	0.327351	0.0578142	-0.0724908	-0.221245	-0.39281	0.182313	0.652588	1.31619	0	0	-0.384909	-0.0763275	-0.500736	0.681211	1.12872	0	0
1.81	-2.95035	1.16981	1.5188	0.535447	-0.603139	1.02886	0.432024	0.0643509	-0.0949961	0.173176	-0.163795	0	0	0.836551	-0.256179	-0.170565	1.23952	-0.508688	0	0	0.329026	0.0517041	-0.0630976	-0.228647	-0.393409	0.159757	0.681169	1.32547	0	0	-0.386499	-0.0753807	-0.50203	0.681332	1.13385	0	0
1.82	-2.96742	1.17147	1.53047	0.535052	-0.614406	1.03023	0.417072	0.0607098	-0.099416	0.168651	-0.164485	0	0	0.834267	-0.2592	-0.201014	1.20648	-0.481327	0	0	0.33023	0.044307	-0.052535	-0.234722	-0.392323	0.139054	0.705562	1.33285	0	0	-0.386267	-0.0747814	-0.50329	0.679412	1.135	0	0
1.83	-2.97664	1.16934	1.53544	0.534923	-0.625064	1.03072	0.407046	0.0596014	-0.101982	0.16571	-0.164595	0	0	0.856589	-0.254154	-0.204714	1.19355	-0.473359	0	0	0.333496	0.0405614	-0.0458023	-0.240261	-0.394544	0.123529	0.734004	1.33925	0	0	-0.388287	-0.0733509	-0.502679	0.681218	1.13796	0	0
1.84	-2.9932	1.17119	1.54569	0.534473	-0.63598	1.0318	0.392702	0.0563367	-0.102439	0.162553	-0.164766	0	0	0.852861	-0.255942	-0.234254	1.15389	-0.453417	0	0	0.332879	0.0342566	-0.0354033	-0.243947	-0.394369	0.108562	0.757445	1.34939	0	0	-0.386994	-0.0742213	-0.499741	0.678741	1.14288	0	0
